<mxGraphModel><root>
    <mxCell id="0"/>
    <mxCell id="1" parent="0"/>
    
        <mxCell id="2" value="<b>Animal</b><br/>Attributes:<br/>species<br/>Methods:<br/>__init__<br/>speak" style="rounded=1;whiteSpace=wrap;html=1;fillColor=#dae8fc;" vertex="1" parent="1">
            <mxGeometry x="50" y="50" width="240" height="120" as="geometry"/>
        </mxCell>
        
        <mxCell id="3" value="<b>Dog</b><br/><i>Inherits: Animal</i><br/>Attributes:<br/>name<br/>Methods:<br/>__init__<br/>speak" style="rounded=1;whiteSpace=wrap;html=1;fillColor=#dae8fc;" vertex="1" parent="1">
            <mxGeometry x="50" y="180" width="240" height="120" as="geometry"/>
        </mxCell>
        
        <mxCell id="4" value="<b>Cat</b><br/><i>Inherits: Animal</i><br/>Attributes:<br/>name<br/>Methods:<br/>__init__<br/>speak" style="rounded=1;whiteSpace=wrap;html=1;fillColor=#dae8fc;" vertex="1" parent="1">
            <mxGeometry x="50" y="310" width="240" height="120" as="geometry"/>
        </mxCell>
        
                <mxCell id="5" style="endArrow=block;endFill=1;strokeColor=#000000;" edge="1" parent="1" source="3" target="2">
                    <mxGeometry relative="1" as="geometry"/>
                </mxCell>
                
                <mxCell id="6" style="endArrow=block;endFill=1;strokeColor=#000000;" edge="1" parent="1" source="4" target="2">
                    <mxGeometry relative="1" as="geometry"/>
                </mxCell>
                
</root></mxGraphModel>
